<svg width="55" height="55" xmlns="http://www.w3.org/2000/svg" xmlns:xlink="http://www.w3.org/1999/xlink" xmlns:svgjs="http://svgjs.com/svgjs" fill="#f5c506"><svg xmlns="http://www.w3.org/2000/svg" width="55" height="55" viewBox="1.995 1.995 54.01 54.01"><path paint-order="stroke fill markers" fill-rule="evenodd" d="M1.995 37.78l8.51-8.78-8.51-8.78h7.218L17.724 29l-8.51 8.78h-7.22zm10.955 0L21.46 29l-8.51-8.78h7.22L28.68 29l-8.51 8.78h-7.22zm43.055 0L47.495 29l8.51-8.78h-7.219L40.276 29l8.51 8.78h7.219zm-10.956 0L36.54 29l8.51-8.78h-7.218L29.32 29l8.51 8.78h7.218zM20.22 1.995l8.78 8.51 8.781-8.51v7.218L29 17.724l-8.78-8.51v-7.22zm0 10.955L29 21.46l8.781-8.51v7.22L29 28.68l-8.78-8.51v-7.22zm0 43.055l8.78-8.51 8.781 8.51v-7.219L29 40.276l-8.78 8.51v7.22zm0-10.956L29 36.54l8.781 8.51v-7.218L29 29.32l-8.78 8.51v7.218z"/></svg></svg>